<svg version="1" xmlns="http://www.w3.org/2000/svg" width="364" height="364" viewBox="0 0 273.000000 273.000000"><path d="M98.4 49c-1.2.5-2.7 2.3-3.3 4.1-1.4 4.1-1.5 41-.1 46.1 1.6 5.7 5.4 9.6 11.3 11.3 8.2 2.4 11.3 2 18.5-2.7 8.8-5.7 12.7-5.7 21.8.3 5.9 3.8 7.4 4.3 12.9 4.5 8.2.3 13.6-1 15.8-3.7 1.5-1.9 1.7-4.8 1.7-28.1 0-28-.5-31.1-5.2-32-7.9-1.4-8.8 1.4-8.8 27.7V98h-3.1c-5.3 0-11.7-2.1-14.1-4.7-2.2-2.4-2.3-3-2.4-20.1 0-19.4-1-23.4-5.8-24.6-3.3-.8-7.1 1-8.5 4.1-.7 1.5-1.1 10.3-1.1 23.9v21.6l-5.3-.5c-12.7-1.1-14.8-5.4-14.8-29.4.1-12.9-.2-15.4-1.7-17.2-2-2.5-4.8-3.2-7.8-2.1z"/><path d="M129.8 111.6c-3 1.6-5.8 6.1-5.8 9.4 0 3.1 2.6 7.5 5.5 9.4 5.3 3.5 14.3.6 16.3-5.1 3.6-10.4-6.4-18.9-16-13.7zM124.9 138.7c-.6 11.1.4 79.4 1.2 81.8 1.6 5.2 9.1 7.9 15.2 5.6 5.5-2.1 5.7-4 5.7-49.1v-41l-2.7.6c-3.7 1-13.1 1-16.5.1-2.5-.7-2.8-.5-2.9 2z"/></svg>